<mxfile host="app.diagrams.net" modified="2024-06-04T15:40:24.724Z" agent="Mozilla/5.0 (Windows NT 10.0; Win64; x64) AppleWebKit/537.36 (KHTML, like Gecko) Chrome/122.0.0.0 YaBrowser/24.4.0.0 Safari/537.36" etag="VMYfyJS7m0x31DTO_XJs" version="24.0.7" type="device">
  <diagram name="Страница — 1" id="mYsYVwVkx-rroYLoCb-7">
    <mxGraphModel dx="1154" dy="552" grid="1" gridSize="10" guides="1" tooltips="1" connect="1" arrows="1" fold="1" page="1" pageScale="1" pageWidth="827" pageHeight="1169" math="0" shadow="0">
      <root>
        <mxCell id="0" />
        <mxCell id="1" parent="0" />
        <mxCell id="Vv3yjiv6IyjwbG-nQn-Y-16" style="edgeStyle=orthogonalEdgeStyle;rounded=0;orthogonalLoop=1;jettySize=auto;html=1;entryX=0;entryY=0.5;entryDx=0;entryDy=0;" edge="1" parent="1" source="Vv3yjiv6IyjwbG-nQn-Y-1" target="Vv3yjiv6IyjwbG-nQn-Y-9">
          <mxGeometry relative="1" as="geometry" />
        </mxCell>
        <mxCell id="Vv3yjiv6IyjwbG-nQn-Y-17" style="edgeStyle=orthogonalEdgeStyle;rounded=0;orthogonalLoop=1;jettySize=auto;html=1;entryX=0.5;entryY=1;entryDx=0;entryDy=0;" edge="1" parent="1" source="Vv3yjiv6IyjwbG-nQn-Y-1" target="Vv3yjiv6IyjwbG-nQn-Y-14">
          <mxGeometry relative="1" as="geometry" />
        </mxCell>
        <mxCell id="Vv3yjiv6IyjwbG-nQn-Y-20" style="edgeStyle=orthogonalEdgeStyle;rounded=0;orthogonalLoop=1;jettySize=auto;html=1;entryX=0.5;entryY=1;entryDx=0;entryDy=0;" edge="1" parent="1" source="Vv3yjiv6IyjwbG-nQn-Y-1" target="Vv3yjiv6IyjwbG-nQn-Y-19">
          <mxGeometry relative="1" as="geometry" />
        </mxCell>
        <mxCell id="Vv3yjiv6IyjwbG-nQn-Y-1" value="Клиент" style="shape=umlActor;verticalLabelPosition=bottom;verticalAlign=top;html=1;outlineConnect=0;" vertex="1" parent="1">
          <mxGeometry x="60" y="490" width="30" height="60" as="geometry" />
        </mxCell>
        <mxCell id="Vv3yjiv6IyjwbG-nQn-Y-13" style="edgeStyle=orthogonalEdgeStyle;rounded=0;orthogonalLoop=1;jettySize=auto;html=1;entryX=1;entryY=0;entryDx=0;entryDy=0;" edge="1" parent="1" source="Vv3yjiv6IyjwbG-nQn-Y-2" target="Vv3yjiv6IyjwbG-nQn-Y-9">
          <mxGeometry relative="1" as="geometry" />
        </mxCell>
        <mxCell id="Vv3yjiv6IyjwbG-nQn-Y-21" style="edgeStyle=orthogonalEdgeStyle;rounded=0;orthogonalLoop=1;jettySize=auto;html=1;" edge="1" parent="1" source="Vv3yjiv6IyjwbG-nQn-Y-2" target="Vv3yjiv6IyjwbG-nQn-Y-19">
          <mxGeometry relative="1" as="geometry" />
        </mxCell>
        <mxCell id="Vv3yjiv6IyjwbG-nQn-Y-2" value="Администратор" style="shape=umlActor;verticalLabelPosition=bottom;verticalAlign=top;html=1;outlineConnect=0;" vertex="1" parent="1">
          <mxGeometry x="230" y="120" width="30" height="60" as="geometry" />
        </mxCell>
        <mxCell id="Vv3yjiv6IyjwbG-nQn-Y-10" style="edgeStyle=orthogonalEdgeStyle;rounded=0;orthogonalLoop=1;jettySize=auto;html=1;" edge="1" parent="1" source="Vv3yjiv6IyjwbG-nQn-Y-6" target="Vv3yjiv6IyjwbG-nQn-Y-9">
          <mxGeometry relative="1" as="geometry" />
        </mxCell>
        <mxCell id="Vv3yjiv6IyjwbG-nQn-Y-6" value="Отдел по работе&lt;div&gt;с клиентами&lt;/div&gt;" style="shape=umlActor;verticalLabelPosition=bottom;verticalAlign=top;html=1;outlineConnect=0;" vertex="1" parent="1">
          <mxGeometry x="60" y="120" width="30" height="60" as="geometry" />
        </mxCell>
        <mxCell id="Vv3yjiv6IyjwbG-nQn-Y-22" style="edgeStyle=orthogonalEdgeStyle;rounded=0;orthogonalLoop=1;jettySize=auto;html=1;entryX=0;entryY=0;entryDx=0;entryDy=0;" edge="1" parent="1" source="Vv3yjiv6IyjwbG-nQn-Y-9" target="Vv3yjiv6IyjwbG-nQn-Y-19">
          <mxGeometry relative="1" as="geometry" />
        </mxCell>
        <mxCell id="Vv3yjiv6IyjwbG-nQn-Y-9" value="&lt;font style=&quot;font-size: 10px;&quot;&gt;Составление заказа&lt;/font&gt;" style="ellipse;whiteSpace=wrap;html=1;" vertex="1" parent="1">
          <mxGeometry x="90" y="280" width="100" height="60" as="geometry" />
        </mxCell>
        <mxCell id="Vv3yjiv6IyjwbG-nQn-Y-15" style="edgeStyle=orthogonalEdgeStyle;rounded=0;orthogonalLoop=1;jettySize=auto;html=1;entryX=0.5;entryY=1;entryDx=0;entryDy=0;" edge="1" parent="1" source="Vv3yjiv6IyjwbG-nQn-Y-14" target="Vv3yjiv6IyjwbG-nQn-Y-9">
          <mxGeometry relative="1" as="geometry" />
        </mxCell>
        <mxCell id="Vv3yjiv6IyjwbG-nQn-Y-14" value="&lt;font style=&quot;font-size: 10px;&quot;&gt;Выбор товара&lt;/font&gt;" style="ellipse;whiteSpace=wrap;html=1;" vertex="1" parent="1">
          <mxGeometry x="150" y="400" width="100" height="60" as="geometry" />
        </mxCell>
        <mxCell id="Vv3yjiv6IyjwbG-nQn-Y-19" value="&lt;font style=&quot;font-size: 10px;&quot;&gt;Идентификация&lt;/font&gt;" style="ellipse;whiteSpace=wrap;html=1;" vertex="1" parent="1">
          <mxGeometry x="320" y="400" width="100" height="60" as="geometry" />
        </mxCell>
        <mxCell id="Vv3yjiv6IyjwbG-nQn-Y-23" value="Клиент" style="shape=umlActor;verticalLabelPosition=bottom;verticalAlign=top;html=1;outlineConnect=0;" vertex="1" parent="1">
          <mxGeometry x="790" y="490" width="30" height="60" as="geometry" />
        </mxCell>
        <mxCell id="Vv3yjiv6IyjwbG-nQn-Y-24" value="Клиент" style="shape=umlActor;verticalLabelPosition=bottom;verticalAlign=top;html=1;outlineConnect=0;" vertex="1" parent="1">
          <mxGeometry x="620" y="120" width="30" height="60" as="geometry" />
        </mxCell>
        <mxCell id="Vv3yjiv6IyjwbG-nQn-Y-25" value="Отдел по работе&lt;div&gt;с клиентами&lt;/div&gt;" style="shape=umlActor;verticalLabelPosition=bottom;verticalAlign=top;html=1;outlineConnect=0;" vertex="1" parent="1">
          <mxGeometry x="790" y="120" width="30" height="60" as="geometry" />
        </mxCell>
        <mxCell id="Vv3yjiv6IyjwbG-nQn-Y-26" value="&lt;span style=&quot;font-size: 10px;&quot;&gt;Предлагание товара&lt;/span&gt;" style="ellipse;whiteSpace=wrap;html=1;" vertex="1" parent="1">
          <mxGeometry x="755" y="280" width="100" height="60" as="geometry" />
        </mxCell>
      </root>
    </mxGraphModel>
  </diagram>
</mxfile>
